<svg xmlns="http://www.w3.org/2000/svg" xmlns:xlink="http://www.w3.org/1999/xlink" id="terminal" baseProfile="full" viewBox="0 0 464 138" width="464" version="1.1">
    <defs>
        <termtosvg:template_settings xmlns:termtosvg="https://github.com/nbedos/termtosvg">
            <termtosvg:screen_geometry columns="58" rows="8"/>
        </termtosvg:template_settings>
        <style type="text/css" id="generated-style"><![CDATA[:root {
            --animation-duration: 20791ms;
        }

    #screen {
                font-family: 'DejaVu Sans Mono', monospace;
                font-style: normal;
                font-size: 14px;
            }

        text {
            dominant-baseline: text-before-edge;
            white-space: pre;
        }]]></style>
        <style type="text/css" id="user-style">
            /* gjm8 color theme (source: https://terminal.sexy/) */
            .foreground {fill: #c5c5c5;}
            .background {fill: #1c1c1c;}
            .color0 {fill: #1c1c1c;}
            .color1 {fill: #ff005b;}
            .color2 {fill: #cee318;}
            .color3 {fill: #ffe755;}
            .color4 {fill: #048ac7;}
            .color5 {fill: #833c9f;}
            .color6 {fill: #0ac1cd;}
            .color7 {fill: #e5e5e5;}
            .color8 {fill: #1c1c1c;}
            .color9 {fill: #ff005b;}
            .color10 {fill: #cee318;}
            .color11 {fill: #ffe755;}
            .color12 {fill: #048ac7;}
            .color13 {fill: #833c9f;}
            .color14 {fill: #0ac1cd;}
            .color15 {fill: #e5e5e5;}
        </style>
    </defs>
    <svg id="screen" width="464" viewBox="0 0 464 136" preserveAspectRatio="xMidYMin meet">
        <rect class="background" height="100%" width="100%" x="0" y="0"/><g display="none"><rect class="foreground" height="17" width="8" x="0" y="51"/><use y="51" xlink:href="#g1"/><animate attributeName="display" begin="0ms; anim_last.end" dur="6ms" from="inline" to="inline"/></g><g display="none"><use y="51" xlink:href="#g2"/><animate attributeName="display" begin="6ms; anim_last.end+6ms" dur="11ms" from="inline" to="inline"/></g><g display="none"><rect class="foreground" height="17" width="8" x="320" y="51"/><use y="51" xlink:href="#g3"/><animate attributeName="display" begin="17ms; anim_last.end+17ms" dur="2634ms" from="inline" to="inline"/></g><g display="none"><use y="68" xlink:href="#g4"/><animate attributeName="display" begin="2345ms; anim_last.end+2345ms" dur="306ms" from="inline" to="inline"/></g><g display="none"><rect class="foreground" height="17" width="8" x="336" y="51"/><use y="51" xlink:href="#g5"/><use y="68" xlink:href="#g6"/><animate attributeName="display" begin="2651ms; anim_last.end+2651ms" dur="146ms" from="inline" to="inline"/></g><g display="none"><rect class="foreground" height="17" width="8" x="384" y="51"/><use y="51" xlink:href="#g7"/><use y="85" xlink:href="#g8"/><animate attributeName="display" begin="2797ms; anim_last.end+2797ms" dur="131ms" from="inline" to="inline"/></g><g display="none"><use y="51" xlink:href="#g9"/><use y="85" xlink:href="#g10"/><animate attributeName="display" begin="2928ms; anim_last.end+2928ms" dur="147ms" from="inline" to="inline"/></g><g display="none"><use y="68" xlink:href="#g11"/><animate attributeName="display" begin="2797ms; anim_last.end+2797ms" dur="1653ms" from="inline" to="inline"/></g><g display="none"><use y="51" xlink:href="#g12"/><use y="85" xlink:href="#g13"/><animate attributeName="display" begin="3075ms; anim_last.end+3075ms" dur="1375ms" from="inline" to="inline"/></g><g display="none"><use y="51" xlink:href="#g14"/><use y="85" xlink:href="#g2"/><animate attributeName="display" begin="4450ms; anim_last.end+4450ms" dur="2ms" from="inline" to="inline"/></g><g display="none"><rect class="foreground" height="17" width="8" x="0" y="85"/><use y="85" xlink:href="#g15"/><animate attributeName="display" begin="4452ms; anim_last.end+4452ms" dur="1239ms" from="inline" to="inline"/></g><g display="none"><use y="0" xlink:href="#g16"/><use y="17" xlink:href="#g17"/><use y="34" xlink:href="#g18"/><animate attributeName="display" begin="0ms; anim_last.end" dur="5702ms" from="inline" to="inline"/></g><g display="none"><use y="68" xlink:href="#g19"/><animate attributeName="display" begin="4450ms; anim_last.end+4450ms" dur="1252ms" from="inline" to="inline"/></g><g display="none"><use y="51" xlink:href="#g14"/><animate attributeName="display" begin="4452ms; anim_last.end+4452ms" dur="1250ms" from="inline" to="inline"/></g><g display="none"><use y="85" xlink:href="#g20"/><use y="102" xlink:href="#g21"/><rect class="foreground" height="17" width="8" x="0" y="119"/><use y="119" xlink:href="#g1"/><animate attributeName="display" begin="5691ms; anim_last.end+5691ms" dur="11ms" from="inline" to="inline"/></g><g display="none"><use y="0" xlink:href="#g14"/><use y="17" xlink:href="#g19"/><use y="34" xlink:href="#g20"/><use y="51" xlink:href="#g21"/><use y="68" xlink:href="#g22"/><use y="85" xlink:href="#g23"/><use y="102" xlink:href="#g24"/><animate attributeName="display" begin="5702ms; anim_last.end+5702ms" dur="129ms" from="inline" to="inline"/></g><g display="none"><use y="0" xlink:href="#g22"/><use y="17" xlink:href="#g23"/><use y="34" xlink:href="#g24"/><use y="51" xlink:href="#g25"/><use y="68" xlink:href="#g26"/><use y="85" xlink:href="#g27"/><use y="102" xlink:href="#g28"/><animate attributeName="display" begin="5831ms; anim_last.end+5831ms" dur="2ms" from="inline" to="inline"/></g><g display="none"><use y="0" xlink:href="#g29"/><use y="17" xlink:href="#g30"/><use y="34" xlink:href="#g31"/><use y="51" xlink:href="#g32"/><use y="68" xlink:href="#g33"/><use y="85" xlink:href="#g34"/><use y="102" xlink:href="#g35"/><animate attributeName="display" begin="5833ms; anim_last.end+5833ms" dur="225ms" from="inline" to="inline"/></g><g display="none"><use y="0" xlink:href="#g36"/><use y="17" xlink:href="#g37"/><use y="34" xlink:href="#g38"/><use y="51" xlink:href="#g39"/><use y="68" xlink:href="#g40"/><use y="85" xlink:href="#g41"/><use y="102" xlink:href="#g42"/><animate attributeName="display" begin="6058ms; anim_last.end+6058ms" dur="3ms" from="inline" to="inline"/></g><g display="none"><use y="0" xlink:href="#g41"/><use y="17" xlink:href="#g42"/><use y="34" xlink:href="#g43"/><use y="51" xlink:href="#g44"/><use y="68" xlink:href="#g45"/><use y="85" xlink:href="#g46"/><use y="102" xlink:href="#g47"/><animate attributeName="display" begin="6061ms; anim_last.end+6061ms" dur="147ms" from="inline" to="inline"/></g><g display="none"><use y="17" xlink:href="#g48"/><use y="34" xlink:href="#g49"/><use y="51" xlink:href="#g50"/><use y="85" xlink:href="#g51"/><animate attributeName="display" begin="6208ms; anim_last.end+6208ms" dur="2ms" from="inline" to="inline"/></g><g display="none"><use y="17" xlink:href="#g48"/><use y="34" xlink:href="#g49"/><use y="51" xlink:href="#g50"/><use y="85" xlink:href="#g51"/><animate attributeName="display" begin="6210ms; anim_last.end+6210ms" dur="62ms" from="inline" to="inline"/></g><g display="none"><use y="17" xlink:href="#g52"/><use y="34" xlink:href="#g53"/><use y="51" xlink:href="#g54"/><use y="68" xlink:href="#g55"/><use y="85" xlink:href="#g56"/><use y="102" xlink:href="#g57"/><animate attributeName="display" begin="6272ms; anim_last.end+6272ms" dur="3ms" from="inline" to="inline"/></g><g display="none"><use y="0" xlink:href="#g58"/><use y="17" xlink:href="#g59"/><use y="34" xlink:href="#g60"/><use y="51" xlink:href="#g61"/><use y="68" xlink:href="#g62"/><use y="85" xlink:href="#g56"/><use y="102" xlink:href="#g57"/><animate attributeName="display" begin="6275ms; anim_last.end+6275ms" dur="4213ms" from="inline" to="inline"/></g><g display="none"><rect class="color0" height="17" width="464" x="0" y="0"/><use y="0" xlink:href="#g63"/><rect fill="#e4e4e4" height="17" width="48" x="0" y="17"/><rect class="color0" height="17" width="416" x="48" y="17"/><use y="17" xlink:href="#g64"/><rect fill="#e4e4e4" height="17" width="8" x="0" y="34"/><rect fill="#d0d0d0" height="17" width="16" x="8" y="34"/><rect fill="#e4e4e4" height="17" width="24" x="24" y="34"/><rect class="color0" height="17" width="416" x="48" y="34"/><use y="34" xlink:href="#g65"/><rect fill="#e4e4e4" height="17" width="8" x="0" y="51"/><rect fill="#d0d0d0" height="17" width="8" x="8" y="51"/><rect fill="#dadada" height="17" width="8" x="16" y="51"/><rect fill="#d0d0d0" height="17" width="16" x="24" y="51"/><rect fill="#e4e4e4" height="17" width="8" x="40" y="51"/><rect class="color0" height="17" width="416" x="48" y="51"/><use y="51" xlink:href="#g66"/><rect fill="#e4e4e4" height="17" width="16" x="0" y="68"/><rect fill="#bcbcbc" height="17" width="8" x="16" y="68"/><rect fill="#d0d0d0" height="17" width="16" x="24" y="68"/><rect fill="#e4e4e4" height="17" width="8" x="40" y="68"/><rect class="color0" height="17" width="248" x="48" y="68"/><use y="68" xlink:href="#g67"/><rect fill="#e4e4e4" height="17" width="24" x="0" y="85"/><rect fill="#d0d0d0" height="17" width="8" x="24" y="85"/><rect fill="#a8a8a8" height="17" width="8" x="32" y="85"/><rect fill="#e4e4e4" height="17" width="8" x="40" y="85"/><rect class="color0" height="17" width="160" x="48" y="85"/><use y="85" xlink:href="#g68"/><rect fill="#e4e4e4" height="17" width="48" x="0" y="102"/><rect class="color0" height="17" width="312" x="48" y="102"/><use y="102" xlink:href="#g69"/><animate attributeName="display" begin="10488ms; anim_last.end+10488ms" dur="398ms" from="inline" to="inline"/></g><g display="none"><rect class="color0" height="17" width="464" x="0" y="0"/><use y="0" xlink:href="#g70"/><rect fill="#e4e4e4" height="17" width="48" x="0" y="17"/><rect class="color0" height="17" width="416" x="48" y="17"/><use y="17" xlink:href="#g64"/><rect fill="#e4e4e4" height="17" width="8" x="0" y="34"/><rect fill="#d0d0d0" height="17" width="16" x="8" y="34"/><rect fill="#e4e4e4" height="17" width="24" x="24" y="34"/><rect class="color0" height="17" width="416" x="48" y="34"/><use y="34" xlink:href="#g65"/><rect fill="#e4e4e4" height="17" width="8" x="0" y="51"/><rect fill="#d0d0d0" height="17" width="8" x="8" y="51"/><rect fill="#dadada" height="17" width="8" x="16" y="51"/><rect fill="#d0d0d0" height="17" width="16" x="24" y="51"/><rect fill="#e4e4e4" height="17" width="8" x="40" y="51"/><rect class="color0" height="17" width="416" x="48" y="51"/><use y="51" xlink:href="#g66"/><rect fill="#e4e4e4" height="17" width="16" x="0" y="68"/><rect fill="#bcbcbc" height="17" width="8" x="16" y="68"/><rect fill="#d0d0d0" height="17" width="16" x="24" y="68"/><rect fill="#e4e4e4" height="17" width="8" x="40" y="68"/><rect class="color0" height="17" width="248" x="48" y="68"/><use y="68" xlink:href="#g67"/><rect fill="#e4e4e4" height="17" width="24" x="0" y="85"/><rect fill="#d0d0d0" height="17" width="8" x="24" y="85"/><rect fill="#a8a8a8" height="17" width="8" x="32" y="85"/><rect fill="#e4e4e4" height="17" width="8" x="40" y="85"/><rect class="color0" height="17" width="160" x="48" y="85"/><use y="85" xlink:href="#g68"/><rect fill="#e4e4e4" height="17" width="48" x="0" y="102"/><rect class="color0" height="17" width="312" x="48" y="102"/><use y="102" xlink:href="#g69"/><animate attributeName="display" begin="10886ms; anim_last.end+10886ms" dur="404ms" from="inline" to="inline"/></g><g display="none"><rect class="color0" height="17" width="464" x="0" y="0"/><use y="0" xlink:href="#g71"/><rect fill="#e4e4e4" height="17" width="48" x="0" y="17"/><rect class="color0" height="17" width="416" x="48" y="17"/><use y="17" xlink:href="#g64"/><rect fill="#e4e4e4" height="17" width="8" x="0" y="34"/><rect fill="#d0d0d0" height="17" width="16" x="8" y="34"/><rect fill="#e4e4e4" height="17" width="24" x="24" y="34"/><rect class="color0" height="17" width="416" x="48" y="34"/><use y="34" xlink:href="#g65"/><rect fill="#e4e4e4" height="17" width="8" x="0" y="51"/><rect fill="#d0d0d0" height="17" width="8" x="8" y="51"/><rect fill="#dadada" height="17" width="8" x="16" y="51"/><rect fill="#d0d0d0" height="17" width="16" x="24" y="51"/><rect fill="#e4e4e4" height="17" width="8" x="40" y="51"/><rect class="color0" height="17" width="416" x="48" y="51"/><use y="51" xlink:href="#g66"/><rect fill="#e4e4e4" height="17" width="16" x="0" y="68"/><rect fill="#bcbcbc" height="17" width="8" x="16" y="68"/><rect fill="#d0d0d0" height="17" width="16" x="24" y="68"/><rect fill="#e4e4e4" height="17" width="8" x="40" y="68"/><rect class="color0" height="17" width="248" x="48" y="68"/><use y="68" xlink:href="#g67"/><rect fill="#e4e4e4" height="17" width="24" x="0" y="85"/><rect fill="#d0d0d0" height="17" width="8" x="24" y="85"/><rect fill="#a8a8a8" height="17" width="8" x="32" y="85"/><rect fill="#e4e4e4" height="17" width="8" x="40" y="85"/><rect class="color0" height="17" width="160" x="48" y="85"/><use y="85" xlink:href="#g68"/><rect fill="#e4e4e4" height="17" width="48" x="0" y="102"/><rect class="color0" height="17" width="312" x="48" y="102"/><use y="102" xlink:href="#g69"/><animate attributeName="display" begin="11290ms; anim_last.end+11290ms" dur="404ms" from="inline" to="inline"/></g><g display="none"><rect class="color0" height="17" width="464" x="0" y="0"/><use y="0" xlink:href="#g72"/><rect fill="#e4e4e4" height="17" width="48" x="0" y="17"/><rect class="color0" height="17" width="416" x="48" y="17"/><use y="17" xlink:href="#g64"/><rect fill="#e4e4e4" height="17" width="8" x="0" y="34"/><rect fill="#d0d0d0" height="17" width="16" x="8" y="34"/><rect fill="#e4e4e4" height="17" width="24" x="24" y="34"/><rect class="color0" height="17" width="416" x="48" y="34"/><use y="34" xlink:href="#g65"/><rect fill="#e4e4e4" height="17" width="8" x="0" y="51"/><rect fill="#d0d0d0" height="17" width="8" x="8" y="51"/><rect fill="#dadada" height="17" width="8" x="16" y="51"/><rect fill="#d0d0d0" height="17" width="16" x="24" y="51"/><rect fill="#e4e4e4" height="17" width="8" x="40" y="51"/><rect class="color0" height="17" width="416" x="48" y="51"/><use y="51" xlink:href="#g66"/><rect fill="#e4e4e4" height="17" width="16" x="0" y="68"/><rect fill="#bcbcbc" height="17" width="8" x="16" y="68"/><rect fill="#d0d0d0" height="17" width="16" x="24" y="68"/><rect fill="#e4e4e4" height="17" width="8" x="40" y="68"/><rect class="color0" height="17" width="248" x="48" y="68"/><use y="68" xlink:href="#g67"/><rect fill="#e4e4e4" height="17" width="24" x="0" y="85"/><rect fill="#d0d0d0" height="17" width="8" x="24" y="85"/><rect fill="#a8a8a8" height="17" width="8" x="32" y="85"/><rect fill="#e4e4e4" height="17" width="8" x="40" y="85"/><rect class="color0" height="17" width="160" x="48" y="85"/><use y="85" xlink:href="#g68"/><rect fill="#e4e4e4" height="17" width="48" x="0" y="102"/><rect class="color0" height="17" width="312" x="48" y="102"/><use y="102" xlink:href="#g69"/><animate attributeName="display" begin="11694ms; anim_last.end+11694ms" dur="404ms" from="inline" to="inline"/></g><g display="none"><rect class="color0" height="17" width="464" x="0" y="0"/><use y="0" xlink:href="#g73"/><rect fill="#e4e4e4" height="17" width="48" x="0" y="17"/><rect class="color0" height="17" width="416" x="48" y="17"/><use y="17" xlink:href="#g64"/><rect fill="#e4e4e4" height="17" width="8" x="0" y="34"/><rect fill="#d0d0d0" height="17" width="16" x="8" y="34"/><rect fill="#e4e4e4" height="17" width="24" x="24" y="34"/><rect class="color0" height="17" width="416" x="48" y="34"/><use y="34" xlink:href="#g65"/><rect fill="#e4e4e4" height="17" width="8" x="0" y="51"/><rect fill="#d0d0d0" height="17" width="16" x="8" y="51"/><rect fill="#dadada" height="17" width="8" x="24" y="51"/><rect fill="#d0d0d0" height="17" width="8" x="32" y="51"/><rect fill="#e4e4e4" height="17" width="8" x="40" y="51"/><rect class="color0" height="17" width="416" x="48" y="51"/><use y="51" xlink:href="#g74"/><rect fill="#e4e4e4" height="17" width="16" x="0" y="68"/><rect fill="#bcbcbc" height="17" width="8" x="16" y="68"/><rect fill="#d0d0d0" height="17" width="16" x="24" y="68"/><rect fill="#e4e4e4" height="17" width="8" x="40" y="68"/><rect class="color0" height="17" width="248" x="48" y="68"/><use y="68" xlink:href="#g67"/><rect fill="#e4e4e4" height="17" width="24" x="0" y="85"/><rect fill="#d0d0d0" height="17" width="8" x="24" y="85"/><rect fill="#a8a8a8" height="17" width="8" x="32" y="85"/><rect fill="#e4e4e4" height="17" width="8" x="40" y="85"/><rect class="color0" height="17" width="160" x="48" y="85"/><use y="85" xlink:href="#g68"/><rect fill="#e4e4e4" height="17" width="48" x="0" y="102"/><rect class="color0" height="17" width="312" x="48" y="102"/><use y="102" xlink:href="#g69"/><animate attributeName="display" begin="12098ms; anim_last.end+12098ms" dur="404ms" from="inline" to="inline"/></g><g display="none"><rect class="color0" height="17" width="464" x="0" y="0"/><use y="0" xlink:href="#g75"/><rect fill="#e4e4e4" height="17" width="48" x="0" y="17"/><rect class="color0" height="17" width="416" x="48" y="17"/><use y="17" xlink:href="#g64"/><rect fill="#e4e4e4" height="17" width="8" x="0" y="34"/><rect fill="#d0d0d0" height="17" width="16" x="8" y="34"/><rect fill="#e4e4e4" height="17" width="24" x="24" y="34"/><rect class="color0" height="17" width="416" x="48" y="34"/><use y="34" xlink:href="#g65"/><rect fill="#e4e4e4" height="17" width="8" x="0" y="51"/><rect fill="#d0d0d0" height="17" width="32" x="8" y="51"/><rect fill="#e4e4e4" height="17" width="8" x="40" y="51"/><rect class="color0" height="17" width="416" x="48" y="51"/><use y="51" xlink:href="#g76"/><rect fill="#e4e4e4" height="17" width="16" x="0" y="68"/><rect fill="#bcbcbc" height="17" width="8" x="16" y="68"/><rect fill="#dadada" height="17" width="8" x="24" y="68"/><rect fill="#d0d0d0" height="17" width="8" x="32" y="68"/><rect fill="#e4e4e4" height="17" width="8" x="40" y="68"/><rect class="color0" height="17" width="248" x="48" y="68"/><use y="68" xlink:href="#g77"/><rect fill="#e4e4e4" height="17" width="24" x="0" y="85"/><rect fill="#d0d0d0" height="17" width="8" x="24" y="85"/><rect fill="#a8a8a8" height="17" width="8" x="32" y="85"/><rect fill="#e4e4e4" height="17" width="8" x="40" y="85"/><rect class="color0" height="17" width="160" x="48" y="85"/><use y="85" xlink:href="#g68"/><rect fill="#e4e4e4" height="17" width="48" x="0" y="102"/><rect class="color0" height="17" width="312" x="48" y="102"/><use y="102" xlink:href="#g69"/><animate attributeName="display" begin="12502ms; anim_last.end+12502ms" dur="404ms" from="inline" to="inline"/></g><g display="none"><rect class="color0" height="17" width="464" x="0" y="0"/><use y="0" xlink:href="#g78"/><rect fill="#e4e4e4" height="17" width="48" x="0" y="17"/><rect class="color0" height="17" width="416" x="48" y="17"/><use y="17" xlink:href="#g64"/><rect fill="#e4e4e4" height="17" width="8" x="0" y="34"/><rect fill="#d0d0d0" height="17" width="16" x="8" y="34"/><rect fill="#e4e4e4" height="17" width="24" x="24" y="34"/><rect class="color0" height="17" width="416" x="48" y="34"/><use y="34" xlink:href="#g65"/><rect fill="#e4e4e4" height="17" width="8" x="0" y="51"/><rect fill="#d0d0d0" height="17" width="32" x="8" y="51"/><rect fill="#e4e4e4" height="17" width="8" x="40" y="51"/><rect class="color0" height="17" width="416" x="48" y="51"/><use y="51" xlink:href="#g76"/><rect fill="#e4e4e4" height="17" width="16" x="0" y="68"/><rect fill="#bcbcbc" height="17" width="8" x="16" y="68"/><rect fill="#d0d0d0" height="17" width="16" x="24" y="68"/><rect fill="#e4e4e4" height="17" width="8" x="40" y="68"/><rect class="color0" height="17" width="248" x="48" y="68"/><use y="68" xlink:href="#g67"/><rect fill="#e4e4e4" height="17" width="24" x="0" y="85"/><rect fill="#dadada" height="17" width="8" x="24" y="85"/><rect fill="#a8a8a8" height="17" width="8" x="32" y="85"/><rect fill="#e4e4e4" height="17" width="8" x="40" y="85"/><rect class="color0" height="17" width="160" x="48" y="85"/><use y="85" xlink:href="#g79"/><rect fill="#e4e4e4" height="17" width="48" x="0" y="102"/><rect class="color0" height="17" width="312" x="48" y="102"/><use y="102" xlink:href="#g69"/><animate attributeName="display" begin="12906ms; anim_last.end+12906ms" dur="403ms" from="inline" to="inline"/></g><g display="none"><rect class="color0" height="17" width="464" x="0" y="0"/><use y="0" xlink:href="#g80"/><rect fill="#e4e4e4" height="17" width="48" x="0" y="17"/><rect class="color0" height="17" width="416" x="48" y="17"/><use y="17" xlink:href="#g64"/><rect fill="#e4e4e4" height="17" width="8" x="0" y="34"/><rect fill="#d0d0d0" height="17" width="16" x="8" y="34"/><rect fill="#e4e4e4" height="17" width="24" x="24" y="34"/><rect class="color0" height="17" width="416" x="48" y="34"/><use y="34" xlink:href="#g65"/><rect fill="#e4e4e4" height="17" width="8" x="0" y="51"/><rect fill="#d0d0d0" height="17" width="32" x="8" y="51"/><rect fill="#e4e4e4" height="17" width="8" x="40" y="51"/><rect class="color0" height="17" width="416" x="48" y="51"/><use y="51" xlink:href="#g76"/><rect fill="#e4e4e4" height="17" width="16" x="0" y="68"/><rect fill="#bcbcbc" height="17" width="8" x="16" y="68"/><rect fill="#d0d0d0" height="17" width="16" x="24" y="68"/><rect fill="#e4e4e4" height="17" width="8" x="40" y="68"/><rect class="color0" height="17" width="248" x="48" y="68"/><use y="68" xlink:href="#g67"/><rect fill="#e4e4e4" height="17" width="24" x="0" y="85"/><rect fill="#dadada" height="17" width="8" x="24" y="85"/><rect fill="#a8a8a8" height="17" width="8" x="32" y="85"/><rect fill="#e4e4e4" height="17" width="8" x="40" y="85"/><rect class="color0" height="17" width="160" x="48" y="85"/><use y="85" xlink:href="#g79"/><rect fill="#e4e4e4" height="17" width="48" x="0" y="102"/><rect class="color0" height="17" width="312" x="48" y="102"/><use y="102" xlink:href="#g69"/><animate attributeName="display" begin="13309ms; anim_last.end+13309ms" dur="404ms" from="inline" to="inline"/></g><g display="none"><rect class="color0" height="17" width="464" x="0" y="0"/><use y="0" xlink:href="#g81"/><rect fill="#e4e4e4" height="17" width="48" x="0" y="17"/><rect class="color0" height="17" width="416" x="48" y="17"/><use y="17" xlink:href="#g64"/><rect fill="#e4e4e4" height="17" width="8" x="0" y="34"/><rect fill="#d0d0d0" height="17" width="16" x="8" y="34"/><rect fill="#e4e4e4" height="17" width="24" x="24" y="34"/><rect class="color0" height="17" width="416" x="48" y="34"/><use y="34" xlink:href="#g65"/><rect fill="#e4e4e4" height="17" width="8" x="0" y="51"/><rect fill="#d0d0d0" height="17" width="32" x="8" y="51"/><rect fill="#e4e4e4" height="17" width="8" x="40" y="51"/><rect class="color0" height="17" width="416" x="48" y="51"/><use y="51" xlink:href="#g76"/><rect fill="#e4e4e4" height="17" width="16" x="0" y="68"/><rect fill="#bcbcbc" height="17" width="8" x="16" y="68"/><rect fill="#d0d0d0" height="17" width="16" x="24" y="68"/><rect fill="#e4e4e4" height="17" width="8" x="40" y="68"/><rect class="color0" height="17" width="248" x="48" y="68"/><use y="68" xlink:href="#g67"/><rect fill="#e4e4e4" height="17" width="24" x="0" y="85"/><rect fill="#dadada" height="17" width="8" x="24" y="85"/><rect fill="#a8a8a8" height="17" width="8" x="32" y="85"/><rect fill="#e4e4e4" height="17" width="8" x="40" y="85"/><rect class="color0" height="17" width="160" x="48" y="85"/><use y="85" xlink:href="#g79"/><rect fill="#e4e4e4" height="17" width="48" x="0" y="102"/><rect class="color0" height="17" width="312" x="48" y="102"/><use y="102" xlink:href="#g69"/><animate attributeName="display" begin="13713ms; anim_last.end+13713ms" dur="403ms" from="inline" to="inline"/></g><g display="none"><rect class="foreground" height="17" width="8" x="0" y="119"/><rect class="color0" height="17" width="456" x="8" y="119"/><use y="119" xlink:href="#g82"/><animate attributeName="display" begin="14525ms; anim_last.end+14525ms" dur="505ms" from="inline" to="inline"/></g><g display="none"><use y="119" xlink:href="#g2"/><animate attributeName="display" begin="15030ms; anim_last.end+15030ms" dur="12ms" from="inline" to="inline"/></g><g display="none"><rect class="color0" height="17" width="464" x="0" y="0"/><use y="0" xlink:href="#g83"/><rect class="color0" height="17" width="464" x="0" y="17"/><use y="17" xlink:href="#g84"/><rect class="color0" height="17" width="464" x="0" y="34"/><use y="34" xlink:href="#g85"/><rect class="color0" height="17" width="464" x="0" y="51"/><use y="51" xlink:href="#g86"/><rect class="color0" height="17" width="296" x="0" y="68"/><use y="68" xlink:href="#g87"/><rect class="color0" height="17" width="208" x="0" y="85"/><use y="85" xlink:href="#g88"/><rect class="color0" height="17" width="360" x="0" y="102"/><use y="102" xlink:href="#g89"/><animate attributeName="display" begin="14116ms; anim_last.end+14116ms" dur="5675ms" from="inline" to="inline"/></g><g display="none"><rect class="foreground" height="17" width="8" x="320" y="119"/><use y="119" xlink:href="#g90"/><animate attributeName="display" begin="15042ms; anim_last.end+15042ms" dur="4749ms" from="inline" to="inline"/></g><g display="none"><rect class="color0" height="17" width="464" x="0" y="0"/><use y="0" xlink:href="#g84"/><rect class="color0" height="17" width="464" x="0" y="17"/><use y="17" xlink:href="#g85"/><rect class="color0" height="17" width="464" x="0" y="34"/><use y="34" xlink:href="#g86"/><rect class="color0" height="17" width="296" x="0" y="51"/><use y="51" xlink:href="#g87"/><rect class="color0" height="17" width="208" x="0" y="68"/><use y="68" xlink:href="#g88"/><rect class="color0" height="17" width="360" x="0" y="85"/><use y="85" xlink:href="#g89"/><use y="102" xlink:href="#g91"/><rect class="foreground" height="17" width="8" x="0" y="119"/><use y="119" xlink:href="#g1"/><animate attributeName="display" begin="19791ms; anim_last.end+19791ms" dur="1000ms" from="inline" to="inline" id="anim_last"/></g><defs><g id="g57"><text class="foreground" textLength="360" x="0">keep_dims is deprecated, use keepdims instead</text></g><g id="g63"><text class="color7" textLength="464" x="0">  0:00:00 Score: -1.00                                    </text></g><g id="g87"><text class="color7" textLength="296" x="0">^@^@^A^A^A^@                         </text></g><g id="g37"><text class="foreground" textLength="464" x="0">me/gpu/gpu_device.cc:982] Device interconnect StreamExecut</text></g><g id="g9"><text class="color9" font-weight="bold" textLength="24" x="0">&#10140;  </text><text class="color14" font-weight="bold" textLength="168" x="24">rl-safety-imagination</text><text class="foreground" textLength="8" x="192"> </text><text class="color12" font-weight="bold" textLength="40" x="200">git:(</text><text class="color9" font-weight="bold" textLength="48" x="240">master</text><text class="color12" font-weight="bold" textLength="16" x="288">) </text><text class="color11" font-weight="bold" textLength="8" x="304">&#10007;</text><text class="foreground" textLength="72" x="312"> python3 </text><text class="foreground" text-decoration="underline" textLength="24" x="384">ren</text><text class="foreground" textLength="56" x="408">der_env</text></g><g id="g35"><text class="foreground" textLength="448" x="0">me/gpu/gpu_device.cc:1511] Adding visible gpu devices: 0</text></g><g id="g79"><text fill="#e4e4e4" textLength="24" x="0">###</text><text class="color0" textLength="16" x="24">AG</text><text fill="#e4e4e4" textLength="8" x="40">#</text><text class="color7" textLength="160" x="48">                    </text></g><g id="g50"><text class="foreground" textLength="360" x="0">into the labels input on backprop by default.</text></g><g id="g47"><text class="foreground" textLength="408" x="0"> pci bus id: 0000:01:00.0, compute capability: 6.1)</text></g><g id="g36"><text class="foreground" textLength="464" x="0">2019-07-06 12:12:16.355314: I tensorflow/core/common_runti</text></g><g id="g16"><text class="foreground" textLength="464" x="0">/home/nevronas/.zshrc:source:105: no such file or director</text></g><g id="g19"><text class="foreground" text-decoration="underline" textLength="24" x="0">.py</text><text class="foreground" textLength="440" x="24">                                                       </text></g><g id="g26"><text class="foreground" textLength="464" x="0">uda/cuda_gpu_executor.cc:964] successful NUMA node read fr</text></g><g id="g11"><text class="foreground" textLength="464" x="0">.py                                                       </text></g><g id="g15"><text class="background" textLength="8" x="0"> </text><text class="foreground" textLength="456" x="8">                                                         </text></g><g id="g44"><text class="foreground" textLength="464" x="0">me/gpu/gpu_device.cc:1115] Created TensorFlow device (/job</text></g><g id="g38"><text class="foreground" textLength="248" x="0">or with strength 1 edge matrix:</text></g><g id="g23"><text class="foreground" textLength="464" x="0">_feature_guard.cc:141] Your CPU supports instructions that</text></g><g id="g49"><text class="foreground" textLength="48" x="0">o flow</text></g><g id="g68"><text fill="#e4e4e4" textLength="24" x="0">###</text><text fill="#d0d0d0" textLength="8" x="24"> </text><text class="color0" textLength="8" x="32">G</text><text fill="#e4e4e4" textLength="8" x="40">#</text><text class="color7" textLength="160" x="48">                    </text></g><g id="g59"><text class="foreground" textLength="464" x="0">rom /home/nevronas/Projects/Personal-Projects/Dhruv/rl-saf</text></g><g id="g34"><text class="foreground" textLength="464" x="0">2019-07-06 12:12:16.127132: I tensorflow/core/common_runti</text></g><g id="g85"><text class="color7" textLength="464" x="0">^@^A^B^@^@^@                                              </text></g><g id="g83"><text class="color7" textLength="464" x="0">  0:00:02 Score: 49.00                                    </text></g><g id="g1"><text class="background" textLength="8" x="0"> </text></g><g id="g58"><text class="foreground" textLength="464" x="0">W0706 12:12:16.574175 139668931274496 tf_logging.py:125] F</text></g><g id="g77"><text fill="#e4e4e4" textLength="16" x="0">##</text><text class="color0" textLength="16" x="16">XA</text><text fill="#d0d0d0" textLength="8" x="32"> </text><text fill="#e4e4e4" textLength="8" x="40">#</text><text class="color7" textLength="248" x="48">                               </text></g><g id="g51"><text class="foreground" textLength="392" x="0">See `tf.nn.softmax_cross_entropy_with_logits_v2`.</text></g><g id="g90"><text class="color10" font-weight="bold" textLength="24" x="0">&#10140;  </text><text class="color14" font-weight="bold" textLength="168" x="24">rl-safety-imagination</text><text class="foreground" textLength="8" x="192"> </text><text class="color12" font-weight="bold" textLength="40" x="200">git:(</text><text class="color9" font-weight="bold" textLength="48" x="240">master</text><text class="color12" font-weight="bold" textLength="16" x="288">) </text><text class="color11" font-weight="bold" textLength="8" x="304">&#10007;</text><text class="foreground" textLength="8" x="312"> </text><text class="background" textLength="8" x="320"> </text><text class="foreground" textLength="136" x="328">                 </text></g><g id="g12"><text class="color9" font-weight="bold" textLength="24" x="0">&#10140;  </text><text class="color14" font-weight="bold" textLength="168" x="24">rl-safety-imagination</text><text class="foreground" textLength="8" x="192"> </text><text class="color12" font-weight="bold" textLength="40" x="200">git:(</text><text class="color9" font-weight="bold" textLength="48" x="240">master</text><text class="color12" font-weight="bold" textLength="16" x="288">) </text><text class="color11" font-weight="bold" textLength="8" x="304">&#10007;</text><text class="foreground" textLength="72" x="312"> python3 </text><text class="foreground" text-decoration="underline" textLength="32" x="384">rend</text><text class="foreground" textLength="48" x="416">er_env</text></g><g id="g33"><text class="foreground" textLength="320" x="0">totalMemory: 7.92GiB freeMemory: 7.44GiB</text></g><g id="g2"><text class="foreground" textLength="464" x="0">                                                          </text></g><g id="g54"><text class="foreground" textLength="464" x="0">uce_max (from tensorflow.python.ops.math_ops) with keep_di</text></g><g id="g78"><text class="color7" textLength="464" x="0">  0:00:01 Score: -7.00                                    </text></g><g id="g91"><text class="color10" font-weight="bold" textLength="24" x="0">&#10140;  </text><text class="color14" font-weight="bold" textLength="168" x="24">rl-safety-imagination</text><text class="foreground" textLength="8" x="192"> </text><text class="color12" font-weight="bold" textLength="40" x="200">git:(</text><text class="color9" font-weight="bold" textLength="48" x="240">master</text><text class="color12" font-weight="bold" textLength="16" x="288">) </text><text class="color11" font-weight="bold" textLength="8" x="304">&#10007;</text><text class="foreground" textLength="152" x="312">                   </text></g><g id="g69"><text fill="#e4e4e4" textLength="48" x="0">######</text><text class="color7" textLength="312" x="48">                                       </text></g><g id="g3"><text class="color9" font-weight="bold" textLength="24" x="0">&#10140;  </text><text class="color14" font-weight="bold" textLength="168" x="24">rl-safety-imagination</text><text class="foreground" textLength="8" x="192"> </text><text class="color12" font-weight="bold" textLength="40" x="200">git:(</text><text class="color9" font-weight="bold" textLength="48" x="240">master</text><text class="color12" font-weight="bold" textLength="16" x="288">) </text><text class="color11" font-weight="bold" textLength="8" x="304">&#10007;</text><text class="foreground" textLength="8" x="312"> </text><text class="background" textLength="8" x="320"> </text><text class="foreground" textLength="136" x="328">                 </text></g><g id="g88"><text class="color7" textLength="208" x="0">^@^@^@^A^E^@              </text></g><g id="g13"><text class="foreground" textLength="464" x="0">bck-i-search: rend_                                       </text></g><g id="g27"><text class="foreground" textLength="464" x="0">om SysFS had negative value (-1), but there must be at lea</text></g><g id="g55"><text class="foreground" textLength="456" x="0">ms is deprecated and will be removed in a future version.</text></g><g id="g53"><text class="foreground" textLength="464" x="0">rojects/Dhruv/rl-safety-imagination/a2c.py:14: calling red</text></g><g id="g31"><text class="foreground" textLength="104" x="0">e(GHz): 1.683</text></g><g id="g8"><text class="foreground" textLength="464" x="0">bck-i-search: re_                                         </text></g><g id="g82"><text class="background" textLength="8" x="0"> </text><text class="color7" textLength="456" x="8">                                                         </text></g><g id="g22"><text class="foreground" textLength="464" x="0">2019-07-06 12:12:15.997501: I tensorflow/core/platform/cpu</text></g><g id="g80"><text class="color7" textLength="464" x="0">  0:00:02 Score: -8.00                                    </text></g><g id="g66"><text fill="#e4e4e4" textLength="8" x="0">#</text><text fill="#d0d0d0" textLength="8" x="8"> </text><text class="color0" textLength="8" x="16">A</text><text fill="#d0d0d0" textLength="16" x="24">  </text><text fill="#e4e4e4" textLength="8" x="40">#</text><text class="color7" textLength="416" x="48">                                                    </text></g><g id="g56"><text class="foreground" textLength="208" x="0">Instructions for updating:</text></g><g id="g42"><text class="foreground" textLength="272" x="0">me/gpu/gpu_device.cc:1001] 0:   N </text></g><g id="g76"><text fill="#e4e4e4" textLength="8" x="0">#</text><text fill="#d0d0d0" textLength="32" x="8">    </text><text fill="#e4e4e4" textLength="8" x="40">#</text><text class="color7" textLength="416" x="48">                                                    </text></g><g id="g25"><text class="foreground" textLength="464" x="0">2019-07-06 12:12:16.126698: I tensorflow/stream_executor/c</text></g><g id="g18"><text class="foreground" textLength="128" x="0">highlighting.zsh</text></g><g id="g32"><text class="foreground" textLength="176" x="0">pciBusID: 0000:01:00.0</text></g><g id="g39"><text class="foreground" textLength="464" x="0">2019-07-06 12:12:16.355352: I tensorflow/core/common_runti</text></g><g id="g61"><text class="foreground" textLength="464" x="0">flow.python.ops.math_ops) with keep_dims is deprecated and</text></g><g id="g14"><text class="color9" font-weight="bold" textLength="24" x="0">&#10140;  </text><text class="color14" font-weight="bold" textLength="168" x="24">rl-safety-imagination</text><text class="foreground" textLength="8" x="192"> </text><text class="color12" font-weight="bold" textLength="40" x="200">git:(</text><text class="color9" font-weight="bold" textLength="48" x="240">master</text><text class="color12" font-weight="bold" textLength="16" x="288">) </text><text class="color11" font-weight="bold" textLength="8" x="304">&#10007;</text><text class="foreground" textLength="8" x="312"> </text><text class="color2" textLength="56" x="320">python3</text><text class="foreground" textLength="8" x="376"> </text><text class="foreground" text-decoration="underline" textLength="80" x="384">render_env</text></g><g id="g75"><text class="color7" textLength="464" x="0">  0:00:01 Score: -6.00                                    </text></g><g id="g48"><text class="foreground" textLength="464" x="0">Future major versions of TensorFlow will allow gradients t</text></g><g id="g10"><text class="foreground" textLength="464" x="0">bck-i-search: ren_                                        </text></g><g id="g28"><text class="foreground" textLength="360" x="0">st one NUMA node, so returning NUMA node zero</text></g><g id="g17"><text class="foreground" textLength="464" x="0">y: /home/nevronas/Junk/zsh-syntax-highlighting/zsh-syntax-</text></g><g id="g29"><text class="foreground" textLength="8" x="0"> </text></g><g id="g4"><text class="foreground" textLength="464" x="0">bck-i-search: _                                           </text></g><g id="g21"><text class="foreground" textLength="160" x="0">Number of actions  4</text></g><g id="g52"><text class="foreground" textLength="464" x="0">WARNING:tensorflow:From /home/nevronas/Projects/Personal-P</text></g><g id="g67"><text fill="#e4e4e4" textLength="16" x="0">##</text><text class="color0" textLength="8" x="16">X</text><text fill="#d0d0d0" textLength="16" x="24">  </text><text fill="#e4e4e4" textLength="8" x="40">#</text><text class="color7" textLength="248" x="48">                               </text></g><g id="g45"><text class="foreground" textLength="464" x="0">:localhost/replica:0/task:0/device:GPU:0 with 7175 MB memo</text></g><g id="g46"><text class="foreground" textLength="464" x="0">ry) -&gt; physical GPU (device: 0, name: GeForce GTX 1070 Ti,</text></g><g id="g30"><text class="foreground" textLength="464" x="0">name: GeForce GTX 1070 Ti major: 6 minor: 1 memoryClockRat</text></g><g id="g89"><text class="color7" textLength="360" x="0">^@^@^@^@^@^@                                 </text></g><g id="g41"><text class="foreground" textLength="464" x="0">2019-07-06 12:12:16.355358: I tensorflow/core/common_runti</text></g><g id="g40"><text class="foreground" textLength="264" x="0">me/gpu/gpu_device.cc:988]      0 </text></g><g id="g70"><text class="color7" textLength="464" x="0">  0:00:00 Score: -2.00                                    </text></g><g id="g24"><text class="foreground" textLength="456" x="0"> this TensorFlow binary was not compiled to use: AVX2 FMA</text></g><g id="g62"><text class="foreground" textLength="296" x="0"> will be removed in a future version.</text></g><g id="g6"><text class="foreground" textLength="464" x="0">bck-i-search: r_                                          </text></g><g id="g64"><text fill="#e4e4e4" textLength="48" x="0">######</text><text class="color7" textLength="416" x="48">                                                    </text></g><g id="g72"><text class="color7" textLength="464" x="0">  0:00:00 Score: -4.00                                    </text></g><g id="g7"><text class="color9" font-weight="bold" textLength="24" x="0">&#10140;  </text><text class="color14" font-weight="bold" textLength="168" x="24">rl-safety-imagination</text><text class="foreground" textLength="8" x="192"> </text><text class="color12" font-weight="bold" textLength="40" x="200">git:(</text><text class="color9" font-weight="bold" textLength="48" x="240">master</text><text class="color12" font-weight="bold" textLength="16" x="288">) </text><text class="color11" font-weight="bold" textLength="8" x="304">&#10007;</text><text class="foreground" textLength="72" x="312"> python3 </text><text class="background" textLength="8" x="384">r</text><text class="foreground" text-decoration="underline" textLength="8" x="392">e</text><text class="foreground" textLength="64" x="400">nder_env</text></g><g id="g73"><text class="color7" textLength="464" x="0">  0:00:01 Score: -5.00                                    </text></g><g id="g5"><text class="color9" font-weight="bold" textLength="24" x="0">&#10140;  </text><text class="color14" font-weight="bold" textLength="168" x="24">rl-safety-imagination</text><text class="foreground" textLength="8" x="192"> </text><text class="color12" font-weight="bold" textLength="40" x="200">git:(</text><text class="color9" font-weight="bold" textLength="48" x="240">master</text><text class="color12" font-weight="bold" textLength="16" x="288">) </text><text class="color11" font-weight="bold" textLength="8" x="304">&#10007;</text><text class="foreground" textLength="24" x="312"> te</text><text class="background" textLength="8" x="336">r</text><text class="foreground" textLength="120" x="344">mtosvg         </text></g><g id="g86"><text class="color7" textLength="464" x="0">^@^A^D^A^A^@                                              </text></g><g id="g74"><text fill="#e4e4e4" textLength="8" x="0">#</text><text fill="#d0d0d0" textLength="16" x="8">  </text><text class="color0" textLength="8" x="24">A</text><text fill="#d0d0d0" textLength="8" x="32"> </text><text fill="#e4e4e4" textLength="8" x="40">#</text><text class="color7" textLength="416" x="48">                                                    </text></g><g id="g65"><text fill="#e4e4e4" textLength="8" x="0">#</text><text fill="#d0d0d0" textLength="16" x="8">  </text><text fill="#e4e4e4" textLength="24" x="24">###</text><text class="color7" textLength="416" x="48">                                                    </text></g><g id="g84"><text class="color7" textLength="464" x="0">^@^@^@^@^@^@                                              </text></g><g id="g81"><text class="color7" textLength="464" x="0">  0:00:02 Score: -9.00                                    </text></g><g id="g71"><text class="color7" textLength="464" x="0">  0:00:00 Score: -3.00                                    </text></g><g id="g60"><text class="foreground" textLength="464" x="0">ety-imagination/a2c.py:16: calling reduce_sum (from tensor</text></g><g id="g43"><text class="foreground" textLength="464" x="0">2019-07-06 12:12:16.355566: I tensorflow/core/common_runti</text></g><g id="g20"><text class="foreground" textLength="464" x="0">Observation space  (1, 6, 6)                              </text></g></defs></svg>
</svg>